<?xml version="1.0" standalone="no"?>
<!DOCTYPE svg PUBLIC "-//W3C//DTD SVG 20010904//EN"
 "http://www.w3.org/TR/2001/REC-SVG-20010904/DTD/svg10.dtd">
<svg version="1.0" xmlns="http://www.w3.org/2000/svg"
 width="512.000000pt" height="512.000000pt" viewBox="0 0 512.000000 512.000000"
 preserveAspectRatio="xMidYMid meet">
<metadata>
Created by potrace 1.14, written by Peter Selinger 2001-2017
</metadata>
<g transform="translate(0.000000,512.000000) scale(0.100000,-0.100000)"
fill="#000000" stroke="none">
<path d="M1560 5106 c-108 -28 -196 -115 -250 -248 l-23 -57 -28 20 c-43 30
-152 68 -210 72 -178 13 -330 -96 -393 -283 -43 -130 -44 -309 -1 -454 14 -49
30 -97 35 -107 9 -15 1 -24 -45 -55 -63 -41 -136 -125 -164 -188 -32 -69 -50
-116 -46 -116 2 0 -1 -15 -6 -32 -14 -46 -19 -206 -8 -265 5 -26 12 -64 15
-83 11 -66 66 -200 116 -282 45 -74 48 -84 33 -93 -106 -63 -166 -117 -211
-193 -124 -206 -105 -486 51 -733 26 -41 86 -113 136 -161 84 -82 88 -88 79
-114 -17 -45 -19 -129 -5 -200 43 -204 236 -371 460 -399 27 -3 50 -7 51 -8 0
-1 20 -38 44 -82 144 -267 328 -475 574 -653 147 -105 571 -322 599 -305 7 3
9 3 5 -2 -8 -8 97 -63 136 -71 191 -43 392 32 470 176 38 70 41 135 10 242
-56 196 -73 264 -100 408 -11 62 -13 343 -2 410 44 279 222 508 483 624 22 9
49 21 60 26 80 36 303 84 448 97 89 8 301 9 382 2 l50 -4 3 50 c2 27 -2 79 -8
115 -46 264 -182 395 -432 419 -5 1 -8 10 -8 22 0 19 4 20 48 14 89 -12 167
-14 237 -5 79 10 172 37 196 57 8 7 21 13 28 13 7 0 50 24 94 54 226 148 352
367 362 625 13 309 -157 584 -450 731 l-70 35 -11 65 c-22 129 -84 240 -184
333 -105 98 -218 146 -380 162 -14 2 -27 4 -30 4 -3 1 -6 32 -7 69 -5 198
-182 362 -388 358 -92 -2 -140 -17 -215 -67 l-61 -41 -22 20 c-35 32 -118 70
-178 80 -201 37 -389 -58 -474 -240 -28 -61 -36 -94 -45 -185 0 -2 -13 -3 -28
-3 -16 0 -54 -9 -84 -19 l-56 -19 -26 68 c-70 177 -217 336 -357 386 -57 19
-145 24 -199 10z"/>
</g>
</svg>
